<?xml version="1.0" encoding="UTF-8" standalone="no"?>
<!-- Created with Inkscape (http://www.inkscape.org/) -->

<svg
   version="1.1"
   id="svg1"
   width="3847.8335"
   height="873.2301"
   viewBox="0 0 3847.8335 873.2301"
   xmlns="http://www.w3.org/2000/svg"
   xmlns:svg="http://www.w3.org/2000/svg">
  <defs
     id="defs1" />
  <g
     id="layer-MC0"
     transform="translate(1108.0016,3577.616)">
    <path
       id="path1"
       d="m -55.294965,-3455.6734 c 8.0573,0.9787 15.9347,6.1147 21.1653,13.352 3.7827,0.4 10.348,-1.188 13.6214,-3.672 -9.8507,-10.116 -21.4467,-13.3427 -34.7867,-9.68 m 41.5933,-10.8427 c 1.9547,11.3427 6.2080004,18.8574 12.75600041,22.5454 21.61869959,4.2986 53.50669959,11.1493 72.71069959,-11.268 3.308,18.8813 6.8627,29.216 19.94,37.792 1.832,15.272 -3.172,34.9386 -11.9627,47.5773 1.7747,-6.02 1.264,-29.2787 -6.04,-29.1347 -6.0186,0.12 -12.8413,20.644 -13.988,24.056 -0.6293,-7.852 -5.3226,-14.712 -7.7586,-16.9346 -18.9974,8.9213 -39.2027,7.8266 -65.4827,-2.864 -32.7467,-12.4574 -60.116,-13.6187 -82.1053,-3.4827 25.8133,9.26 26.932,55.3947 48.8653,75.888 12.5453,11.724 22.136,4.652 30.9667,-9.384 -6.4947,31.8493 11.0053004,39.0893 20.5466004,10.2253 1.9854,16.2574 0.9667,29.2134 -3.0533,38.872 -15.9893004,3.2894 -24.1240004,9.508 -26.3080004,14.924 -28.2293,-48.2533 -45.5827,-28.2733 -94.094695,-31.592 26.071995,-14.3333 23.209395,-33.6813 14.9147,-40.924 -17.0027,-14.8466 -53.08798,-15.912 -70.03198,0.033 -28.408,26.7346 11.588,91.4693 30.056,121.3613 33.99198,53.844 46.555975,138.8293 -32.796,187.6933 5.5827,28.9454 6.9387,59.0347 1.22,90.6027 -41.4773,-147.68 -261.592,-268.0413 -362.5733,-219.292 12.8693,-53.9813 49.2466,-117.012 86.788,-164.7853 -74.7227,68.0906 -135.2454,187.312 -127.5734,292.5693 -25.9,-10.5813 -42.3573,-54.7293 -49.3666,-132.4467 -11.8854,-53.7173 -36.1134,-89.4573 -71.4894,-107.7546 -16.38528,-8.476 -34.63595,-12.892 -53.07595,-12.3747 77.95335,-70.2453 186.01195,-95.604 282.65865,-96.5227 -136.428,-12.336 -304.16532,33.2667 -377.83465,158.252 -6.51866,-11.6813 -0.9,-36.564 16.85734,-74.6506 51.05733,-106.3627 21.19733,-174.416 -89.532,-204.1867 139.98799,-24.384 290.52661,-7.0987 451.62001,51.8653 -249.62002,-145.3026 -537.62936,-79.3093 -639.13336,-74.768 271.00401,-95.6333 538.80536,-61.7946 764.09066,101.268 -42.8787,-14.304 -71.9653,15.8574 -72.1253,44.5547 -0.2694,48.1653 177.0173,163.54 214.772,287.7813 -17.4094,-89.5266 -88.9654,-164.5346 -144.0707,-219.308 16.4293,-51.484 40.8173,-89.628 69.5253,-115.4866 26.38,-23.76 47.0067,-26.0694 94.6667,-22.268 -36.1053,-5.432 -58.528,-15.4067 -64.3293,-58.568 24.42,48.92 55.7253,18.756 80.7453,17.4506 9.872,-0.5146 22.4573,1.7827 37.73868,6.6334 -25.68398,-17.1574 -45.17738,-39.0934 -58.48138,-65.8107 20.2107,23.5813 48.98268,41.1507 86.313375,52.7107 -13.906695,-12.6134 -24.139995,-28.508 -30.698695,-47.6867 22.5747,31.9493 79.355995,66.9987 116.153295,76.8373"
       style="fill:#000000;fill-opacity:1;fill-rule:evenodd;stroke:none;stroke-width:1.33333" />
    <path
       id="path2"
       d="m -480.46814,-2765.9365 c 14.7333,2.6787 36.164,3.348 58.9333,3.348 124.5614,0 192.1987,-69.648 192.1987,-191.5307 0.6707,-106.48 -59.6027,-174.1173 -182.824,-174.1173 -30.136,0 -52.9053,2.6787 -68.308,6.0267 z m -58.2613,-399.1333 c 35.492,-5.356 77.6826,-9.3747 123.8906,-9.3747 83.7107,0 143.3134,19.42 182.824,56.2533 40.1814,36.8334 63.62,89.0667 63.62,162.064 0,73.664 -22.768,133.9374 -64.96,175.456 -42.1893,42.192 -111.836,64.9614 -199.5653,64.9614 -41.52,0 -76.344,-2.0107 -105.8093,-5.3587 z"
       style="fill:#000000;fill-opacity:1;fill-rule:nonzero;stroke:none;stroke-width:1.33333" />
    <path
       id="path3"
       d="m 107.49814,-2959.4756 h 59.6027 c 62.2813,0 101.792,-34.1547 101.792,-85.72 0,-58.2627 -42.1907,-83.7107 -103.8014,-84.3813 -28.1266,0 -48.2173,2.68 -57.5933,5.3586 z m -58.261305,-205.5947 c 29.4653,-6.0266 71.656005,-9.3746 111.837305,-9.3746 62.28,0 102.4613,11.3853 130.588,36.8333 22.7693,20.0907 35.4933,50.8947 35.4933,85.7187 0,59.6026 -37.5026,99.1133 -85.0493,115.1853 v 2.0107 c 34.8227,12.0533 55.584,44.1973 66.2987,91.076 14.732,62.9506 25.448,106.4813 34.8226,123.8933 h -60.272 c -7.3666,-12.7253 -17.4106,-51.5667 -30.1346,-107.82 -13.3934,-62.2813 -37.5027,-85.72 -90.408,-87.7293 h -54.9147 v 195.5493 H 49.236835 Z"
       style="fill:#000000;fill-opacity:1;fill-rule:nonzero;stroke:none;stroke-width:1.33333" />
    <path
       id="path4"
       d="m 633.85872,-2907.2398 -44.1987,-129.9187 c -10.0453,-29.468 -16.7413,-56.2546 -23.4386,-82.372 h -1.34 c -6.696,26.788 -14.0627,54.244 -22.7694,81.7014 l -44.1986,130.5893 z m -148,45.5373 -46.87728,141.9747 h -60.272 l 153.35728,-451.3693 h 70.3173 l 154.028,451.3693 h -62.2813 l -48.216,-141.9747 z"
       style="fill:#000000;fill-opacity:1;fill-rule:nonzero;stroke:none;stroke-width:1.33333" />
    <path
       id="path5"
       d="m 1156.2129,-2739.8193 c -26.1187,9.3747 -77.684,24.7787 -138.6253,24.7787 -68.30668,0 -124.56138,-17.4134 -168.75868,-59.6014 -38.8413,-37.504 -62.9507,-97.7746 -62.9507,-168.092 0.6694,-134.6066 93.0854,-233.0506 244.43338,-233.0506 52.236,0 93.0866,11.3853 112.5066,20.76 l -14.0626,47.548 c -24.1094,-10.7147 -54.2454,-19.4214 -99.7827,-19.4214 -109.82798,0 -181.48398,68.308 -181.48398,181.4854 0,114.516 68.9773,182.1546 174.11598,182.1546 38.1733,0 64.292,-5.3573 77.6867,-12.0546 v -134.6067 h -91.748 v -46.8773 h 148.6693 z"
       style="fill:#000000;fill-opacity:1;fill-rule:nonzero;stroke:none;stroke-width:1.33333" />
    <path
       id="path6"
       d="m 2400.9719,-2719.7282 v -451.368 h 63.6213 l 144.6507,228.3627 c 33.484,52.9053 59.6027,100.452 81.032,146.6613 l 1.34,-0.6707 c -5.3573,-60.272 -6.6973,-115.1853 -6.6973,-185.5026 v -188.8507 h 54.9133 v 451.368 h -58.932 l -143.3107,-229.032 c -31.4773,-50.2267 -61.612,-101.7933 -84.3813,-150.68 l -2.0093,0.6693 c 3.3493,56.924 4.688,111.168 4.688,186.1734 v 192.8693 z"
       style="fill:#000000;fill-opacity:1;fill-rule:nonzero;stroke:none;stroke-width:1.33333" />
    <path
       id="path7"
       d="m 1355.7923,-3149.6194 c 5.48,9.3813 10.5907,18.1307 15.1747,25.9773 -12.0054,11.5254 -24.5587,22.076 -35.36,34.1907 -68.04,76.3227 -60.232,198.3627 16.512,266.304 24.7226,21.8867 52.476,37.204 85.7546,40.7787 20.2974,2.18 39.5627,-1.272 57.424,-11.6747 10.9254,-6.364 18.972,-15.668 22.4627,-27.3133 1.876,-6.2627 -0.1867,-14.3934 -2.3827,-21.048 -3.9466,-11.96 -13.4693,-19.748 -23.4626,-26.812 -18.2387,-12.888 -35.616,-26.792 -49.3907,-44.5894 -16.1773,-20.904 -23.896,-43.536 -12.8747,-69.5613 0.6454,-1.5253 1.3907,-3.008 2.088,-4.5107 0.296,-0.636 0.588,-1.2746 1.492,-1.7973 1.28,36.228 24.832,55.6107 52.488,71.5853 21.924,12.664 44.5627,24.088 66.3987,36.8947 16.036,9.404 30.2187,21.332 40.0027,37.5973 18.2,30.2574 14.648,66.4054 -9.5494,95.12 -21.9693,26.0707 -50.9026,39.3094 -84.164,42.0707 -124.4693,10.3267 -234.9426,-76.788 -254.8306,-200.2627 -15.3014,-94.9973 28.1293,-191.2573 108.7013,-240.92 0.996,-0.6133 2.0267,-1.1706 3.516,-2.0293"
       style="fill:#980000;fill-opacity:1;fill-rule:nonzero;stroke:none;stroke-width:1.33333" />
    <path
       id="path8"
       d="m 1453.8938,-2986.7204 c 4.724,-14.804 8.728,-20.4893 28.148,-39.964 -10.6027,-0.988 -34.4933,6.828 -48.024,15.5707 -18.9467,12.2426 -28.952,29.3506 -29.0107,52.168 -0.063,25.004 10.02,45.7826 26.6774,63.5653 7.9133,8.448 17.0773,15.7067 25.3226,23.86 6.0347,5.9693 12.3747,11.932 17.0294,18.9307 10.136,15.236 4.3786,30.2973 -13.0547,35.8053 -13.5893,4.2947 -27.1907,2.9293 -40.5387,-1.1907 -23.0933,-7.132 -41.732,-20.9693 -56.9933,-39.4253 -1.6627,-2.012 -2.0773,-6.0693 -1.4533,-8.8067 4.3,-18.872 3.4706,-37.2626 -4.7387,-54.904 -2.2533,-4.844 -5.452,-9.52 -9.1653,-13.3546 -7.9574,-8.2214 -16.2587,-6.8387 -21.8214,3.292 -2.1293,3.88 -3.4946,8.1826 -5.5466,13.104 -6.7227,-10.0094 -7.7267,-20.448 -4.9934,-31.2894 3.632,-14.4053 12.652,-25.184 24.0307,-34.288 3.104,-2.484 6.3147,-5.184 8.4573,-8.4533 4.5214,-6.896 0.8014,-14.1533 -7.5133,-13.4147 -7.0427,0.6254 -13.86,3.952 -20.7347,6.212 -1.6853,0.5547 -3.204,1.616 -5.8333,2.9827 3.8053,-13.4627 10.936,-23.244 21.7533,-29.7933 7.428,-4.496 15.696,-7.6094 23.6174,-11.276 4.2786,-1.98 9.2426,-3.068 12.7426,-5.9614 2.8787,-2.3786 6.3814,-7.792 5.416,-10.1213 -1.3173,-3.184 -6.6013,-6.5467 -10.196,-6.56 -6.408,-0.024 -12.8466,2.3107 -19.2226,3.8627 -2.0067,0.488 -3.8547,1.6306 -5.96,2.5546 2.9826,-7.9266 12.9186,-18.9186 23.5066,-25.5226 4.7987,-2.9934 9.916,-5.5294 15.0587,-7.9067 11.2347,-5.1933 21.6067,-7.0067 32.5947,2.4467 7.1466,6.1466 16.9626,9.184 25.8346,12.4946 -14.7493,-14.384 -30.1466,-28.1706 -44.0653,-43.32 -13.988,-15.2253 -23.7,-33.504 -31.1013,-53.7453 1.9373,1.432 4.1386,2.6107 5.7733,4.332 20.5147,21.6133 44.876,36.9053 73.564,45.1027 4.224,1.2066 8.5667,1.992 14.3107,3.3053 -11.6027,-23.2947 -18.3347,-46.1467 -17.1454,-71.2027 36.2547,65.284 86.6174,112.0414 162.6534,125.376 -7.2267,11.9174 -19.3414,17.276 -31.8374,13.7427 -7.9413,-2.2453 -15.5426,-5.68 -23.3573,-8.4053 -2.852,-0.9947 -5.88,-1.476 -9.968,-2.4694 3.636,6.62 6.5453,12.3374 9.9493,17.744 0.6387,1.0134 3.304,1.232 4.9387,1.0334 4.2187,-0.5134 8.3707,-1.54 12.572,-2.2267 9.1027,-1.488 16.796,0.668 24.4507,6.4827 5.7266,4.3506 13.2893,6.876 20.4226,8.588 6.0747,1.4586 12.704,0.6093 19.0894,0.7586 4.0173,0.095 8.08,-0.1933 12.048,0.2947 6.876,0.848 14.276,1.8587 16.7933,9.6533 2.5293,7.832 -2.1067,13.644 -7.4333,18.6987 -8.6654,8.2253 -21.8587,13.6267 -33.9294,14.1093 1.0387,-3.6826 2.0827,-7.3693 3.7027,-13.0906 -12.312,6.628 -23.52,8.472 -36.0107,5.008 2.888,-3.1 5.5027,-5.4814 7.6067,-8.2507 4.6453,-6.116 3.34,-12.228 -4.0507,-13.6093 -9.868,-1.8467 -20.112,-2.1694 -30.1973,-2.1934 -6.9973,-0.016 -14,1.576 -21.2547,3.264 13.4574,1.9627 21.1654,10.8067 27.8134,21.2307 13.6373,21.376 22.2266,24.804 46.916,19.1853 1.0946,-0.2493 2.2173,-0.3746 3.596,-0.6026 -7.7454,17.5733 -30.6334,29.0946 -51.4187,25.9426 0.66,-1.12 1.2293,-2.096 1.8093,-3.0666 5.0414,-8.4627 3.6014,-14.9254 -5.768,-17.9374 -8.8773,-2.8546 -18.4146,-4.5146 -27.7333,-4.8893 -11.0307,-0.444 -22.1373,1.0507 -34.516,1.784 5.0653,-9.1773 12.6773,-14.416 23.2267,-18.8 -15.2387,-4.4547 -28.904,-5.1213 -42.6507,-2.62 -6.2427,1.136 -12.26,3.488 -18.412,5.164 -1.904,0.5173 -3.9173,0.6213 -5.8813,0.9147 z"
       style="fill:#980000;fill-opacity:1;fill-rule:nonzero;stroke:none;stroke-width:1.33333" />
    <path
       id="path9"
       d="m 1635.0918,-2763.6488 c 12.6173,-74.7067 -21.8933,-121.4027 -88.8573,-149.1387 22.8733,-3.3346 66.2453,1.5907 105.1,32.4894 4.0893,-11.2267 8.7746,-21.712 11.7626,-32.6614 29,-106.2906 -33.584,-212.3746 -140.5226,-237.872 -12.7854,-3.048 -26.2467,-3.1746 -39.3334,-5.0853 -2.8466,-0.416 -6.3106,-2.008 -7.9693,-4.208 -5.3587,-7.1107 -10.0093,-14.7587 -15.152,-22.5307 82.964,-10.544 194.128,34.7667 240.3333,145.3894 45.1587,108.1146 2.648,219.7146 -65.3613,273.6173"
       style="fill:#980000;fill-opacity:1;fill-rule:nonzero;stroke:none;stroke-width:1.33333" />
    <path
       id="path10"
       d="m 1453.7883,-2986.8174 c 0.044,0.037 0.087,0.075 0.1187,0.104 -0.013,-0.01 -0.1187,-0.104 -0.1187,-0.104"
       style="fill:#980000;fill-opacity:1;fill-rule:nonzero;stroke:none;stroke-width:1.33333" />
    <path
       id="path11"
       d="m 2160.6555,-3148.4281 c -5.48,9.3813 -10.5907,18.1307 -15.1747,25.9773 12.0054,11.5254 24.5574,22.076 35.36,34.1907 68.0387,76.3227 60.232,198.3627 -16.512,266.304 -24.7226,21.8867 -52.476,37.204 -85.756,40.7787 -20.296,2.18 -39.5613,-1.272 -57.4226,-11.6747 -10.9267,-6.364 -18.972,-15.668 -22.4627,-27.3133 -1.8773,-6.2627 0.1867,-14.3934 2.3827,-21.048 3.9466,-11.9587 13.468,-19.748 23.4626,-26.812 18.2387,-12.888 35.616,-26.792 49.3907,-44.5894 16.1773,-20.904 23.896,-43.536 12.8733,-69.5613 -0.644,-1.5253 -1.3893,-3.0067 -2.0866,-4.5093 -0.296,-0.6374 -0.588,-1.2747 -1.492,-1.7987 -1.28,36.228 -24.832,55.6107 -52.4894,71.5853 -21.9226,12.664 -44.5626,24.088 -66.3973,36.8947 -16.0373,9.404 -30.2187,21.332 -40.0027,37.5973 -18.2,30.2574 -14.648,66.4054 9.5494,95.1214 21.9693,26.0693 50.9026,39.308 84.164,42.0693 124.4693,10.3267 234.9426,-76.788 254.8306,-200.2627 15.3014,-94.9973 -28.1293,-191.2573 -108.7013,-240.9186 -0.996,-0.6147 -2.0267,-1.172 -3.516,-2.0307"
       style="fill:#980000;fill-opacity:1;fill-rule:nonzero;stroke:none;stroke-width:1.33333" />
    <path
       id="path12"
       d="m 2062.5527,-2985.5289 c -4.7227,-14.804 -8.7267,-20.4893 -28.1467,-39.964 10.6027,-0.9867 34.4934,6.828 48.024,15.5707 18.9454,12.2426 28.952,29.3506 29.0094,52.168 0.064,25.004 -10.0187,45.7826 -26.676,63.5653 -7.9134,8.448 -17.0774,15.7067 -25.3227,23.8613 -6.0347,5.968 -12.3747,11.9307 -17.0293,18.9294 -10.136,15.236 -4.38,30.2973 13.0546,35.8053 13.5894,4.2947 27.1907,2.9307 40.5387,-1.1907 23.092,-7.132 41.732,-20.9693 56.9933,-39.4253 1.6627,-2.012 2.0774,-6.0693 1.4534,-8.8067 -4.3,-18.872 -3.472,-37.2626 4.7386,-54.904 2.2534,-4.844 5.452,-9.52 9.1654,-13.3546 7.9573,-8.2214 16.2586,-6.8387 21.8213,3.292 2.1293,3.88 3.4947,8.1826 5.5467,13.104 6.7226,-10.0094 7.7253,-20.448 4.992,-31.2894 -3.6307,-14.4053 -12.6507,-25.184 -24.0294,-34.288 -3.1053,-2.484 -6.3146,-5.184 -8.4573,-8.4533 -4.5213,-6.896 -0.8027,-14.1533 7.5133,-13.4147 7.0427,0.6254 13.86,3.952 20.7347,6.212 1.6853,0.5547 3.204,1.616 5.8333,2.9827 -3.8053,-13.4627 -10.936,-23.244 -21.7533,-29.7933 -7.428,-4.496 -15.696,-7.6094 -23.6173,-11.276 -4.2787,-1.98 -9.244,-3.068 -12.7427,-5.9614 -2.8787,-2.3786 -6.3813,-7.792 -5.416,-10.1213 1.3173,-3.184 6.6,-6.5467 10.196,-6.56 6.408,-0.024 12.8467,2.3107 19.2213,3.8627 2.008,0.488 3.856,1.6306 5.9614,2.5546 -2.9827,-7.9266 -12.9187,-18.9186 -23.5067,-25.5213 -4.7987,-2.9933 -9.916,-5.5307 -15.06,-7.908 -11.2347,-5.1933 -21.6053,-7.0067 -32.5933,2.4467 -7.1467,6.148 -16.9627,9.184 -25.8347,12.4946 14.7493,-14.384 30.1467,-28.1706 44.0653,-43.32 13.988,-15.2253 23.7,-33.504 31.1014,-53.7453 -1.9374,1.432 -4.14,2.612 -5.7734,4.332 -20.5146,21.6133 -44.876,36.9053 -73.5653,45.1027 -4.2227,1.2066 -8.5653,1.992 -14.3093,3.3053 11.6026,-23.2947 18.3346,-46.1453 17.144,-71.2027 -36.2534,65.284 -86.616,112.0414 -162.652,125.376 7.2266,11.9174 19.34,17.276 31.836,13.7427 7.9426,-2.244 15.544,-5.68 23.3586,-8.4053 2.852,-0.9947 5.88,-1.476 9.968,-2.4694 -3.636,6.62 -6.5453,12.3374 -9.9493,17.744 -0.6387,1.0134 -3.3053,1.232 -4.9387,1.0334 -4.2186,-0.5134 -8.3706,-1.54 -12.572,-2.2267 -9.1026,-1.488 -16.796,0.668 -24.4506,6.4827 -5.7267,4.3506 -13.2894,6.876 -20.4227,8.588 -6.0747,1.4586 -12.704,0.6093 -19.0893,0.7586 -4.0187,0.095 -8.08,-0.1933 -12.048,0.2947 -6.8774,0.848 -14.276,1.8587 -16.7934,9.6547 -2.5293,7.8306 2.1067,13.6426 7.4334,18.6973 8.6653,8.2253 21.8586,13.6267 33.9293,14.1093 -1.04,-3.6826 -2.0827,-7.3693 -3.7027,-13.0906 12.312,6.628 23.5187,8.472 36.0107,5.0093 -2.888,-3.1013 -5.5027,-5.4827 -7.6067,-8.252 -4.6453,-6.1147 -3.3413,-12.228 4.0507,-13.6093 9.868,-1.8467 20.112,-2.1694 30.196,-2.1934 6.9987,-0.016 14.0013,1.576 21.2547,3.264 -13.456,1.9627 -21.164,10.8067 -27.8134,21.2307 -13.636,21.376 -22.2253,24.804 -46.9146,19.1853 -1.096,-0.2493 -2.2174,-0.3746 -3.596,-0.6026 7.7453,17.5733 30.6333,29.0946 51.4186,25.9426 -0.66,-1.12 -1.2306,-2.096 -1.8093,-3.0666 -5.0413,-8.4627 -3.6027,-14.924 5.768,-17.9374 8.876,-2.8546 18.4147,-4.5146 27.7333,-4.8893 11.0307,-0.444 22.1374,1.052 34.516,1.784 -5.0653,-9.176 -12.6786,-14.416 -23.2266,-18.8 15.2386,-4.4547 28.904,-5.1213 42.6506,-2.62 6.2427,1.136 12.26,3.488 18.412,5.164 1.9027,0.5173 3.9174,0.6213 5.8814,0.9147 z"
       style="fill:#980000;fill-opacity:1;fill-rule:nonzero;stroke:none;stroke-width:1.33333" />
    <path
       id="path13"
       d="m 1881.3561,-2762.4573 c -12.6187,-74.7067 21.8933,-121.4027 88.8573,-149.1387 -22.8746,-3.3346 -66.2453,1.5907 -105.1,32.4894 -4.0893,-11.2267 -8.7746,-21.712 -11.7626,-32.6614 -29.0014,-106.2906 33.5826,-212.3746 140.5213,-237.8706 12.7853,-3.0494 26.248,-3.176 39.3347,-5.0867 2.8466,-0.416 6.3106,-2.008 7.9693,-4.208 5.3587,-7.1107 10.0093,-14.7587 15.152,-22.5307 -82.964,-10.544 -194.1293,34.7667 -240.3333,145.3894 -45.1587,108.1146 -2.648,219.7146 65.3613,273.6173"
       style="fill:#980000;fill-opacity:1;fill-rule:nonzero;stroke:none;stroke-width:1.33333" />
    <path
       id="path14"
       d="m 2062.6594,-2985.626 c -0.044,0.037 -0.087,0.075 -0.1187,0.104 0.012,-0.01 0.1187,-0.104 0.1187,-0.104"
       style="fill:#980000;fill-opacity:1;fill-rule:nonzero;stroke:none;stroke-width:1.33333" />
  </g>
</svg>
