<?xml version="1.0" encoding="UTF-8" standalone="no"?>
<!-- Created with Inkscape (http://www.inkscape.org/) -->

<svg
   version="1.1"
   id="svg1"
   width="3848.792"
   height="873.41956"
   viewBox="0 0 3848.792 873.41956"
   xmlns="http://www.w3.org/2000/svg"
   xmlns:svg="http://www.w3.org/2000/svg">
  <defs
     id="defs1" />
  <g
     id="g1"
     transform="translate(-8.776,-53.113266)">
    <path
       id="path1"
       d="m 796.309,131.312 c 6.043,0.735 11.953,4.586 15.879,10.016 2.835,0.301 7.761,-0.89 10.218,-2.754 -7.39,-7.59 -16.09,-10.012 -26.097,-7.262 m 31.203,-8.132 c 1.465,8.508 4.656,14.144 9.57,16.91 16.219,3.226 40.141,8.363 54.547,-8.453 2.48,14.164 5.148,21.918 14.957,28.351 1.375,11.457 -2.379,26.211 -8.973,35.692 1.332,-4.516 0.946,-21.965 -4.531,-21.856 -4.516,0.09 -9.633,15.485 -10.496,18.043 -0.469,-5.887 -3.992,-11.035 -5.82,-12.703 -14.25,6.695 -29.407,5.871 -49.121,-2.148 -24.567,-9.344 -45.102,-10.215 -61.598,-2.614 19.367,6.95 20.207,41.559 36.66,56.93 9.41,8.797 16.605,3.488 23.231,-7.039 -4.872,23.891 8.257,29.324 15.414,7.672 1.488,12.195 0.726,21.914 -2.29,29.16 -11.996,2.465 -18.097,7.133 -19.738,11.195 -21.176,-36.199 -34.195,-21.211 -70.59,-23.699 19.563,-10.754 17.414,-25.266 11.192,-30.699 -12.758,-11.137 -39.828,-11.938 -52.539,0.023 -21.309,20.055 8.695,68.617 22.547,91.039 25.504,40.395 34.925,104.145 -24.602,140.801 4.188,21.715 5.207,44.285 0.914,67.969 C 675.133,406.969 510.004,316.68 434.25,353.25 c 9.652,-40.496 36.945,-87.781 65.105,-123.617 -56.054,51.078 -101.457,140.515 -95.703,219.472 -19.429,-7.937 -31.773,-41.054 -37.035,-99.355 -8.914,-40.297 -27.09,-67.105 -53.629,-80.832 -12.293,-6.359 -25.984,-9.672 -39.816,-9.285 58.48,-52.695 139.543,-71.719 212.047,-72.406 -102.348,-9.254 -228.18,24.957 -283.446,118.714 -4.89,-8.761 -0.675,-27.429 12.645,-56 C 252.719,170.152 230.32,119.102 147.254,96.77 252.27,78.477 365.203,91.441 486.051,135.676 298.789,26.676 82.73,76.18 6.582,79.586 209.887,7.848 410.785,33.23 579.793,155.555 c -32.168,-10.731 -53.988,11.894 -54.109,33.422 -0.2,36.132 132.796,122.683 161.121,215.882 -13.059,-67.16 -66.743,-123.425 -108.078,-164.515 12.324,-38.621 30.617,-67.235 52.156,-86.633 19.789,-17.824 35.262,-19.555 71.015,-16.703 -27.086,-4.078 -43.906,-11.559 -48.257,-43.938 18.32,36.7 41.804,14.071 60.574,13.09 7.406,-0.387 16.847,1.34 28.312,4.977 -19.269,-12.871 -33.894,-29.325 -43.875,-49.367 15.164,17.687 36.746,30.867 64.754,39.539 -10.433,-9.461 -18.109,-21.383 -23.031,-35.77 16.934,23.965 59.531,50.258 87.137,57.641"
       style="fill:#00000c;fill-opacity:1;fill-rule:evenodd;stroke:none;stroke-width:0.99975002;stroke-dasharray:none"
       transform="scale(1.3333333)" />
    <path
       id="path2"
       d="m 477.348,648.727 c 11.054,2.007 27.132,2.511 44.211,2.511 93.445,0 144.187,-52.25 144.187,-143.679 0.504,-79.879 -44.715,-130.618 -137.152,-130.618 -22.61,0 -39.688,2.012 -51.246,4.524 z M 433.645,349.312 c 26.625,-4.019 58.273,-7.035 92.937,-7.035 62.801,0 107.512,14.571 137.152,42.2 30.145,27.632 47.731,66.816 47.731,121.574 0,55.261 -17.082,100.476 -48.735,131.621 -31.648,31.652 -83.898,48.73 -149.71,48.73 -31.149,0 -57.274,-1.507 -79.375,-4.019 z"
       style="fill:#00000c;fill-opacity:1;fill-rule:nonzero;stroke:none;stroke-width:0.99975002;stroke-dasharray:none"
       transform="scale(1.3333333)" />
    <path
       id="path3"
       d="m 918.434,503.539 h 44.714 c 46.723,0 76.364,-25.621 76.364,-64.301 0,-43.707 -31.653,-62.797 -77.871,-63.3 -21.102,0 -36.172,2.011 -43.207,4.019 z M 874.727,349.312 c 22.105,-4.523 53.757,-7.035 83.898,-7.035 46.723,0 76.867,8.543 97.965,27.633 17.082,15.07 26.629,38.18 26.629,64.301 0,44.715 -28.133,74.351 -63.805,86.41 v 1.508 c 26.125,9.043 41.699,33.156 49.738,68.32 11.051,47.223 19.09,79.879 26.125,92.942 h -45.218 c -5.524,-9.547 -13.059,-38.684 -22.606,-80.883 -10.047,-46.723 -28.133,-64.305 -67.824,-65.813 h -41.195 v 146.696 h -43.707 z"
       style="fill:#00000c;fill-opacity:1;fill-rule:nonzero;stroke:none;stroke-width:0.99975002;stroke-dasharray:none"
       transform="scale(1.3333333)" />
    <path
       id="path4"
       d="m 1313.305,542.727 -33.16,-97.461 c -7.536,-22.106 -12.559,-42.2 -17.583,-61.793 h -1.003 c -5.024,20.097 -10.551,40.691 -17.082,61.289 l -33.157,97.965 z m -111.028,34.16 -35.168,106.504 h -45.214 l 115.046,-338.602 h 52.75 l 115.551,338.602 h -46.722 l -36.172,-106.504 z"
       style="fill:#00000c;fill-opacity:1;fill-rule:nonzero;stroke:none;stroke-width:0.99975002;stroke-dasharray:none"
       transform="scale(1.3333333)" />
    <path
       id="path5"
       d="m 1705.168,668.316 c -19.594,7.036 -58.277,18.59 -103.996,18.59 -51.242,0 -93.445,-13.062 -126.602,-44.711 -29.136,-28.133 -47.222,-73.347 -47.222,-126.097 0.5,-100.977 69.832,-174.825 183.371,-174.825 39.183,0 69.832,8.539 84.398,15.575 l -10.547,35.668 c -18.09,-8.039 -40.695,-14.571 -74.855,-14.571 -82.395,0 -136.149,51.243 -136.149,136.145 0,85.906 51.746,136.644 130.622,136.644 28.636,0 48.23,-4.019 58.277,-9.043 V 540.715 h -68.828 v -35.164 h 111.531 z"
       style="fill:#00000c;fill-opacity:1;fill-rule:nonzero;stroke:none;stroke-width:0.99975002;stroke-dasharray:none"
       transform="scale(1.3333333)" />
    <path
       id="path6"
       d="M 2638.969,683.391 V 344.789 h 47.726 l 108.516,171.309 c 25.121,39.687 44.715,75.355 60.789,110.019 l 1.008,-0.5 c -4.02,-45.215 -5.028,-86.41 -5.028,-139.156 V 344.789 h 41.196 v 338.602 h -44.207 L 2741.457,511.578 c -23.613,-37.68 -46.219,-76.359 -63.301,-113.035 l -1.508,0.504 c 2.512,42.703 3.516,83.394 3.516,139.66 v 144.684 z"
       style="fill:#00000c;fill-opacity:1;fill-rule:nonzero;stroke:none;stroke-width:0.99975002;stroke-dasharray:none"
       transform="scale(1.3333333)" />
    <path
       id="path7"
       d="m 1854.891,360.902 c 4.109,7.036 7.941,13.602 11.382,19.489 -9.007,8.644 -18.425,16.558 -26.527,25.648 -51.043,57.254 -45.184,148.801 12.387,199.77 18.547,16.418 39.367,27.91 64.332,30.589 15.226,1.637 29.68,-0.953 43.078,-8.757 8.195,-4.774 14.234,-11.754 16.852,-20.489 1.406,-4.699 -0.141,-10.797 -1.786,-15.789 -2.961,-8.972 -10.105,-14.816 -17.601,-20.113 -13.684,-9.668 -26.719,-20.098 -37.055,-33.449 -12.137,-15.684 -17.926,-32.66 -9.656,-52.184 0.484,-1.144 1.043,-2.258 1.566,-3.383 0.219,-0.476 0.442,-0.957 1.117,-1.347 0.961,27.175 18.629,41.715 39.375,53.699 16.45,9.5 33.434,18.07 49.813,27.676 12.031,7.054 22.672,16.004 30.012,28.207 13.652,22.695 10.988,49.812 -7.164,71.351 -16.485,19.559 -38.188,29.492 -63.141,31.563 -93.375,7.746 -176.25,-57.606 -191.172,-150.231 -11.476,-71.261 21.106,-143.472 81.547,-180.726 0.75,-0.461 1.52,-0.879 2.641,-1.524"
       style="fill:#980000;fill-opacity:1;fill-rule:nonzero;stroke:none;stroke-width:0.99975002;stroke-dasharray:none"
       transform="scale(1.3333333)" />
    <path
       id="path8"
       d="m 1928.484,483.102 c 3.543,-11.106 6.547,-15.372 21.114,-29.981 -7.953,-0.738 -25.875,5.125 -36.024,11.684 -14.215,9.183 -21.722,22.015 -21.765,39.133 -0.047,18.757 7.515,34.343 20.011,47.683 5.938,6.34 12.813,11.785 19,17.899 4.528,4.48 9.282,8.953 12.774,14.203 7.605,11.429 3.285,22.726 -9.793,26.859 -10.196,3.223 -20.399,2.195 -30.41,-0.894 -17.325,-5.348 -31.309,-15.731 -42.758,-29.575 -1.246,-1.508 -1.559,-4.554 -1.09,-6.605 3.227,-14.16 2.605,-27.953 -3.555,-41.188 -1.691,-3.632 -4.09,-7.14 -6.875,-10.019 -5.968,-6.168 -12.199,-5.129 -16.371,2.469 -1.597,2.914 -2.621,6.14 -4.16,9.832 -5.043,-7.508 -5.797,-15.34 -3.746,-23.473 2.723,-10.805 9.492,-18.891 18.027,-25.723 2.328,-1.863 4.739,-3.886 6.344,-6.34 3.391,-5.171 0.602,-10.617 -5.637,-10.062 -5.281,0.469 -10.398,2.965 -15.554,4.66 -1.266,0.414 -2.403,1.211 -4.375,2.238 2.855,-10.101 8.203,-17.437 16.32,-22.351 5.57,-3.371 11.773,-5.707 17.715,-8.457 3.211,-1.489 6.933,-2.305 9.558,-4.473 2.161,-1.785 4.789,-5.848 4.067,-7.594 -0.989,-2.386 -4.953,-4.91 -7.653,-4.922 -4.804,-0.015 -9.636,1.735 -14.418,2.899 -1.507,0.367 -2.894,1.223 -4.472,1.918 2.238,-5.949 9.691,-14.195 17.637,-19.149 3.597,-2.246 7.437,-4.148 11.296,-5.929 8.426,-3.899 16.207,-5.258 24.45,1.836 5.363,4.609 12.726,6.886 19.382,9.371 -11.066,-10.789 -22.617,-21.133 -33.058,-32.496 -10.492,-11.422 -17.777,-25.133 -23.332,-40.317 1.453,1.074 3.105,1.957 4.332,3.25 15.39,16.211 33.664,27.684 55.187,33.832 3.168,0.907 6.426,1.496 10.735,2.481 -8.703,-17.477 -13.754,-34.617 -12.864,-53.414 27.2,48.972 64.981,84.051 122.024,94.051 -5.422,8.941 -14.512,12.96 -23.887,10.312 -5.957,-1.688 -11.66,-4.262 -17.519,-6.309 -2.141,-0.746 -4.414,-1.105 -7.481,-1.851 2.727,4.965 4.91,9.254 7.465,13.312 0.48,0.758 2.477,0.922 3.703,0.774 3.168,-0.383 6.281,-1.156 9.434,-1.668 6.828,-1.117 12.597,0.5 18.343,4.863 4.293,3.262 9.969,5.156 15.321,6.441 4.554,1.094 9.527,0.458 14.32,0.567 3.012,0.074 6.059,-0.145 9.039,0.223 5.156,0.636 10.707,1.394 12.598,7.242 1.894,5.875 -1.582,10.234 -5.578,14.027 -6.5,6.168 -16.399,10.223 -25.453,10.582 0.781,-2.762 1.562,-5.527 2.777,-9.82 -9.234,4.972 -17.645,6.355 -27.016,3.758 2.168,-2.325 4.129,-4.11 5.707,-6.188 3.485,-4.59 2.508,-9.176 -3.039,-10.211 -7.402,-1.383 -15.086,-1.625 -22.652,-1.644 -5.25,-0.012 -10.504,1.183 -15.945,2.449 10.093,1.473 15.878,8.105 20.867,15.926 10.23,16.035 16.672,18.605 35.195,14.39 0.82,-0.187 1.66,-0.281 2.695,-0.449 -5.808,13.18 -22.98,21.824 -38.574,19.461 0.496,-0.84 0.922,-1.574 1.36,-2.301 3.781,-6.347 2.703,-11.199 -4.329,-13.457 -6.66,-2.14 -13.812,-3.387 -20.804,-3.668 -8.274,-0.332 -16.606,0.789 -25.895,1.34 3.801,-6.887 9.512,-10.816 17.426,-14.105 -11.434,-3.34 -21.684,-3.84 -31.996,-1.965 -4.684,0.851 -9.199,2.617 -13.813,3.875 -1.429,0.386 -2.937,0.465 -4.414,0.683 z"
       style="fill:#980000;fill-opacity:1;fill-rule:nonzero;stroke:none;stroke-width:0.99975002;stroke-dasharray:none"
       transform="scale(1.3333333)" />
    <path
       id="path9"
       d="m 2064.414,650.441 c 9.469,-56.043 -16.422,-91.07 -66.656,-111.879 17.156,-2.5 49.695,1.196 78.844,24.376 3.066,-8.422 6.582,-16.29 8.824,-24.504 21.754,-79.735 -25.196,-159.313 -105.418,-178.442 -9.594,-2.285 -19.692,-2.383 -29.508,-3.816 -2.137,-0.309 -4.734,-1.504 -5.98,-3.156 -4.02,-5.332 -7.508,-11.071 -11.368,-16.899 62.239,-7.91 145.633,26.078 180.297,109.063 33.879,81.105 1.985,164.824 -49.035,205.257"
       style="fill:#980000;fill-opacity:1;fill-rule:nonzero;stroke:none;stroke-width:0.99975002;stroke-dasharray:none"
       transform="scale(1.3333333)" />
    <path
       id="path10"
       d="m 1928.402,483.031 c 0.036,0.028 0.067,0.055 0.09,0.078 -0.01,-0.007 -0.09,-0.078 -0.09,-0.078"
       style="fill:#980000;fill-opacity:1;fill-rule:nonzero;stroke:none;stroke-width:0.99975002;stroke-dasharray:none"
       transform="scale(1.3333333)" />
    <path
       id="path11"
       d="m 2458.688,361.797 c -4.114,7.035 -7.946,13.598 -11.383,19.484 9.004,8.649 18.422,16.563 26.523,25.649 51.043,57.254 45.188,148.804 -12.387,199.773 -18.546,16.418 -39.367,27.906 -64.332,30.59 -15.226,1.637 -29.679,-0.953 -43.078,-8.758 -8.195,-4.773 -14.23,-11.754 -16.851,-20.488 -1.407,-4.699 0.14,-10.801 1.789,-15.793 2.961,-8.969 10.101,-14.813 17.601,-20.113 13.68,-9.668 26.719,-20.098 37.051,-33.45 12.137,-15.679 17.926,-32.656 9.656,-52.179 -0.48,-1.145 -1.039,-2.258 -1.562,-3.383 -0.223,-0.481 -0.442,-0.957 -1.121,-1.352 -0.961,27.18 -18.629,41.719 -39.375,53.703 -16.449,9.5 -33.43,18.071 -49.813,27.676 -12.031,7.055 -22.668,16.004 -30.008,28.203 -13.652,22.7 -10.988,49.817 7.164,71.36 16.481,19.554 38.184,29.484 63.137,31.558 93.375,7.746 176.25,-57.605 191.172,-150.23 11.481,-71.266 -21.101,-143.473 -81.547,-180.727 -0.746,-0.461 -1.519,-0.879 -2.636,-1.523"
       style="fill:#980000;fill-opacity:1;fill-rule:nonzero;stroke:none;stroke-width:0.99975002;stroke-dasharray:none"
       transform="scale(1.3333333)" />
    <path
       id="path12"
       d="m 2385.09,483.996 c -3.543,-11.105 -6.547,-15.371 -21.113,-29.98 7.953,-0.739 25.875,5.125 36.027,11.679 14.211,9.188 21.719,22.02 21.762,39.137 0.046,18.758 -7.516,34.344 -20.012,47.684 -5.938,6.336 -12.813,11.781 -18.996,17.898 -4.528,4.477 -9.285,8.953 -12.778,14.203 -7.601,11.43 -3.285,22.727 9.793,26.86 10.196,3.218 20.399,2.195 30.415,-0.895 17.324,-5.352 31.304,-15.73 42.753,-29.574 1.25,-1.512 1.559,-4.555 1.09,-6.61 -3.222,-14.156 -2.601,-27.949 3.555,-41.183 1.691,-3.637 4.09,-7.145 6.879,-10.02 5.969,-6.168 12.195,-5.129 16.367,2.469 1.598,2.91 2.621,6.141 4.164,9.832 5.043,-7.508 5.793,-15.34 3.742,-23.473 -2.722,-10.808 -9.488,-18.89 -18.027,-25.722 -2.328,-1.863 -4.734,-3.887 -6.344,-6.34 -3.39,-5.176 -0.601,-10.617 5.637,-10.063 5.285,0.469 10.398,2.965 15.555,4.661 1.265,0.414 2.406,1.211 4.375,2.234 -2.852,-10.098 -8.204,-17.434 -16.317,-22.348 -5.574,-3.375 -11.777,-5.707 -17.719,-8.461 -3.21,-1.484 -6.933,-2.3 -9.558,-4.468 -2.16,-1.786 -4.789,-5.848 -4.063,-7.594 0.989,-2.391 4.95,-4.91 7.649,-4.922 4.808,-0.02 9.636,1.734 14.418,2.898 1.508,0.368 2.894,1.223 4.472,1.914 -2.238,-5.945 -9.691,-14.191 -17.632,-19.144 -3.602,-2.246 -7.442,-4.148 -11.297,-5.93 -8.43,-3.898 -16.211,-5.258 -24.453,1.836 -5.36,4.61 -12.727,6.887 -19.379,9.371 11.062,-10.789 22.613,-21.133 33.054,-32.496 10.496,-11.422 17.782,-25.133 23.332,-40.32 -1.453,1.074 -3.105,1.961 -4.332,3.25 -15.386,16.215 -33.664,27.687 -55.187,33.836 -3.168,0.906 -6.426,1.492 -10.734,2.48 8.707,-17.476 13.753,-34.617 12.863,-53.414 -27.199,48.973 -64.981,84.047 -122.02,94.051 5.422,8.941 14.508,12.961 23.883,10.309 5.957,-1.684 11.66,-4.258 17.524,-6.305 2.14,-0.746 4.41,-1.106 7.476,-1.852 -2.726,4.965 -4.91,9.254 -7.465,13.313 -0.476,0.758 -2.476,0.922 -3.703,0.773 -3.164,-0.386 -6.281,-1.156 -9.434,-1.672 -6.828,-1.113 -12.597,0.504 -18.339,4.864 -4.297,3.265 -9.969,5.16 -15.321,6.445 -4.558,1.094 -9.531,0.457 -14.32,0.566 -3.016,0.075 -6.062,-0.144 -9.039,0.223 -5.16,0.637 -10.711,1.395 -12.598,7.242 -1.898,5.875 1.578,10.235 5.575,14.028 6.5,6.168 16.398,10.222 25.453,10.582 -0.778,-2.762 -1.563,-5.528 -2.778,-9.821 9.239,4.973 17.645,6.356 27.016,3.758 -2.168,-2.324 -4.129,-4.113 -5.707,-6.187 -3.484,-4.59 -2.508,-9.176 3.039,-10.211 7.402,-1.387 15.09,-1.629 22.652,-1.645 5.25,-0.012 10.504,1.18 15.946,2.449 -10.094,1.469 -15.875,8.106 -20.864,15.926 -10.23,16.035 -16.675,18.606 -35.195,14.391 -0.824,-0.188 -1.664,-0.281 -2.699,-0.453 5.812,13.183 22.98,21.828 38.574,19.461 -0.496,-0.84 -0.922,-1.571 -1.359,-2.297 -3.782,-6.352 -2.7,-11.199 4.328,-13.457 6.66,-2.141 13.816,-3.387 20.804,-3.668 8.278,-0.332 16.61,0.789 25.895,1.336 -3.801,-6.883 -9.512,-10.813 -17.426,-14.102 11.434,-3.34 21.684,-3.84 31.996,-1.965 4.684,0.852 9.2,2.617 13.813,3.875 1.43,0.387 2.941,0.465 4.414,0.684 z"
       style="fill:#980000;fill-opacity:1;fill-rule:nonzero;stroke:none;stroke-width:0.99975002;stroke-dasharray:none"
       transform="scale(1.3333333)" />
    <path
       id="path13"
       d="m 2249.16,651.336 c -9.465,-56.043 16.426,-91.07 66.66,-111.879 -17.16,-2.5 -49.695,1.195 -78.843,24.371 -3.071,-8.422 -6.586,-16.285 -8.825,-24.5 -21.757,-79.734 25.192,-159.316 105.414,-178.441 9.594,-2.285 19.692,-2.383 29.512,-3.817 2.133,-0.312 4.734,-1.504 5.977,-3.156 4.019,-5.332 7.507,-11.07 11.367,-16.902 -62.238,-7.91 -145.633,26.082 -180.297,109.066 -33.875,81.106 -1.984,164.82 49.035,205.258"
       style="fill:#980000;fill-opacity:1;fill-rule:nonzero;stroke:none;stroke-width:0.99975002;stroke-dasharray:none"
       transform="scale(1.3333333)" />
    <path
       id="path14"
       d="m 2385.172,483.922 c -0.035,0.027 -0.067,0.058 -0.09,0.078 0.01,-0.008 0.09,-0.078 0.09,-0.078"
       style="fill:#980000;fill-opacity:1;fill-rule:nonzero;stroke:none;stroke-width:0.99975002;stroke-dasharray:none"
       transform="scale(1.3333333)" />
  </g>
</svg>
